<svg width="215" height="55" viewBox="0 0 215 55" fill="none" xmlns="http://www.w3.org/2000/svg"><path d="M78.96 23.325a4.06 4.06 0 00-.085-.867 1.66 1.66 0 00-.367-.72c-.179-.22-.443-.44-.793-.66a9.215 9.215 0 00-1.343-.683c-.66-.277-1.298-.57-1.916-.879a9.005 9.005 0 01-1.673-1.098 4.772 4.772 0 01-1.184-1.465c-.285-.57-.427-1.237-.427-2.002 0-.749.134-1.428.403-2.039a4.443 4.443 0 011.172-1.562 5.35 5.35 0 011.77-1.014c.683-.236 1.444-.354 2.282-.354 1.14 0 2.124.236 2.954.708a4.946 4.946 0 011.941 1.941c.464.822.696 1.766.696 2.832h-3.564c0-.504-.074-.948-.22-1.33a1.843 1.843 0 00-.671-.916c-.31-.22-.708-.33-1.197-.33-.455 0-.834.094-1.135.281a1.675 1.675 0 00-.66.745c-.138.31-.207.66-.207 1.05 0 .293.07.557.208.793.146.228.346.436.598.623.252.179.55.354.891.525.35.17.732.337 1.148.5a13.4 13.4 0 012.136 1.05 6.576 6.576 0 011.55 1.27c.415.463.728.988.94 1.574.212.586.317 1.254.317 2.002 0 .74-.13 1.416-.39 2.027a4.328 4.328 0 01-1.111 1.562 5.147 5.147 0 01-1.77 1.001c-.684.236-1.449.354-2.295.354-.822 0-1.6-.114-2.332-.342a5.698 5.698 0 01-1.94-1.062 4.994 4.994 0 01-1.307-1.819c-.317-.74-.476-1.615-.476-2.624h3.577c0 .537.053.997.159 1.38.106.374.268.675.488.903.22.22.488.386.806.5.325.106.695.159 1.11.159.472 0 .847-.09 1.123-.269.285-.179.489-.419.61-.72.123-.301.184-.643.184-1.025zm9.253-5.799V28h-3.43V14.792h3.222l.208 2.734zm-.488 3.418l-.94.025c-.017-.928.065-1.783.244-2.564.179-.781.447-1.46.806-2.038a3.953 3.953 0 011.379-1.343c.553-.317 1.2-.476 1.94-.476.48 0 .925.09 1.331.268.407.171.761.444 1.062.818.302.366.533.847.696 1.44.163.587.244 1.29.244 2.112V28H91.07v-8.398c0-.586-.057-1.034-.17-1.343-.115-.318-.277-.537-.489-.66-.211-.13-.472-.195-.781-.195-.326 0-.61.09-.855.269a1.952 1.952 0 00-.598.757c-.146.317-.26.691-.341 1.123-.074.431-.11.895-.11 1.391zm6.433-.341l-1.233.158c-.016-.87.06-1.68.232-2.429.17-.757.435-1.416.793-1.977a3.959 3.959 0 011.343-1.331c.545-.317 1.176-.476 1.892-.476.537 0 1.025.09 1.465.268.44.18.814.468 1.123.867.317.39.557.907.72 1.55.171.643.257 1.425.257 2.344V28h-3.43v-8.41c0-.595-.058-1.05-.172-1.368-.114-.317-.276-.533-.488-.647a1.575 1.575 0 00-.757-.17c-.293 0-.549.08-.769.243-.211.163-.39.391-.537.684a3.703 3.703 0 00-.33 1.013c-.073.383-.11.802-.11 1.258zm14.99 4.357v-6.103c0-.399-.049-.716-.147-.952a.941.941 0 00-.415-.513 1.202 1.202 0 00-.659-.17c-.293 0-.537.06-.732.182a1.125 1.125 0 00-.44.525c-.089.228-.134.5-.134.818h-3.43c0-.57.11-1.107.33-1.611.219-.513.541-.96.964-1.343a4.68 4.68 0 011.538-.916c.594-.22 1.261-.33 2.002-.33.879 0 1.66.151 2.344.452a3.492 3.492 0 011.623 1.404c.399.643.598 1.477.598 2.503v5.884c0 .74.037 1.342.11 1.806.082.464.2.863.354 1.197V28h-3.442c-.155-.366-.273-.822-.354-1.367a12.785 12.785 0 01-.11-1.673zm.415-5.029l.012 2.05h-1.257c-.326 0-.61.054-.855.16a1.644 1.644 0 00-.598.451 1.853 1.853 0 00-.366.66c-.073.252-.11.52-.11.805 0 .318.045.586.134.806.09.22.224.386.403.5.179.114.391.171.635.171.374 0 .7-.077.977-.232.276-.154.48-.342.61-.561.138-.22.183-.424.134-.61l.781 1.33a5.964 5.964 0 01-.402.94 3.994 3.994 0 01-.623.903 3.013 3.013 0 01-.94.684c-.366.17-.801.256-1.306.256a3.93 3.93 0 01-1.941-.488 3.625 3.625 0 01-1.392-1.367c-.333-.586-.5-1.282-.5-2.088 0-.667.106-1.27.317-1.806.22-.546.546-1.005.977-1.38.431-.382.976-.675 1.636-.879.659-.203 1.432-.305 2.319-.305h1.355zm8.972-2.197V28h-3.418V14.792h3.223l.195 2.942zm3.113-3.04l-.049 3.406a4.323 4.323 0 00-.561-.073 7.424 7.424 0 00-.562-.025c-.382 0-.708.062-.976.184a1.628 1.628 0 00-.672.524 2.428 2.428 0 00-.39.855c-.09.342-.143.728-.159 1.16l-.647-.245c0-.862.065-1.652.195-2.368.138-.724.342-1.35.611-1.88.268-.537.59-.952.964-1.245.382-.293.814-.44 1.294-.44.163 0 .333.017.512.05.188.024.334.057.44.097zm8.118.098v2.576h-6.739v-2.576h6.739zm-5.188-3.26h3.405v12.44c0 .366.037.647.11.842.074.195.183.334.33.415.154.073.358.11.61.11.171 0 .33-.008.476-.024a2.33 2.33 0 00.33-.074v2.674a4.748 4.748 0 01-.855.244 5.575 5.575 0 01-1.049.085c-.684 0-1.278-.13-1.783-.39-.496-.26-.883-.676-1.159-1.246-.277-.577-.415-1.334-.415-2.27V11.533zM142.241 28h-3.137l.024-2.954h3.113c.863 0 1.534-.155 2.014-.464.481-.31.818-.797 1.014-1.465.203-.667.305-1.542.305-2.624v-2.771c0-.822-.053-1.518-.159-2.088-.106-.578-.285-1.041-.537-1.391a2.23 2.23 0 00-1.013-.794c-.423-.17-.948-.256-1.575-.256h-3.247v-2.966h3.247c1.025 0 1.957.166 2.795.5a5.913 5.913 0 012.161 1.465c.602.635 1.066 1.42 1.392 2.356.325.936.488 2.002.488 3.198v2.747c0 1.204-.163 2.27-.488 3.198-.326.928-.79 1.713-1.392 2.356a5.852 5.852 0 01-2.161 1.453c-.846.333-1.794.5-2.844.5zm-1.062-17.773V28h-3.576V10.227h3.576zm15.711 18.017c-.904 0-1.705-.138-2.405-.415a4.754 4.754 0 01-1.758-1.196 5.375 5.375 0 01-1.099-1.917c-.252-.748-.378-1.603-.378-2.563v-1.087c0-1.074.122-2.014.366-2.82.244-.813.59-1.497 1.038-2.05a4.096 4.096 0 011.648-1.233c.659-.277 1.404-.415 2.234-.415.83 0 1.558.138 2.185.415a3.813 3.813 0 011.574 1.22c.415.538.729 1.205.94 2.003.212.797.318 1.725.318 2.783v1.562h-8.85v-2.404h5.493v-.306c0-.537-.057-.984-.171-1.343-.114-.366-.293-.638-.537-.817-.244-.18-.57-.269-.977-.269-.342 0-.63.07-.866.208a1.426 1.426 0 00-.562.647c-.138.293-.24.675-.305 1.147a12.268 12.268 0 00-.098 1.672v1.087c0 .61.053 1.123.159 1.538.106.407.26.74.464 1 .211.253.468.436.769.55.301.106.651.159 1.05.159.602 0 1.143-.106 1.623-.317.488-.22.903-.517 1.245-.892l1.367 2.076c-.236.309-.561.618-.976.927a5.31 5.31 0 01-1.489.757c-.578.195-1.246.293-2.002.293zm10.363-2.88l2.124-10.572h3.565L169.316 28h-2.136l.073-2.637zm-1.257-10.572l2.161 10.583.036 2.625h-2.148l-3.626-13.208h3.577zm12.183 0V28h-3.43V14.792h3.43zm-3.589-3.418c0-.529.167-.964.5-1.306.342-.35.798-.525 1.368-.525.577 0 1.033.175 1.367.525.333.342.5.777.5 1.306 0 .52-.171.956-.513 1.306-.333.342-.781.513-1.342.513-.578 0-1.038-.171-1.38-.513-.333-.35-.5-.785-.5-1.306zM185.662 25.4c.317 0 .59-.065.817-.195.236-.13.416-.342.538-.635.122-.293.187-.672.195-1.135h3.21c0 .992-.211 1.851-.634 2.575a4.345 4.345 0 01-1.685 1.66c-.7.383-1.493.574-2.38.574-.887 0-1.661-.142-2.32-.427a4.142 4.142 0 01-1.635-1.245c-.424-.546-.745-1.209-.965-1.99-.211-.79-.317-1.693-.317-2.71v-.964c0-1.001.106-1.896.317-2.686.22-.79.541-1.457.965-2.002a4.16 4.16 0 011.623-1.245c.659-.285 1.432-.427 2.319-.427.953 0 1.779.2 2.478.598.7.39 1.246.968 1.636 1.733.399.765.598 1.71.598 2.832h-3.21c-.008-.504-.069-.923-.183-1.257-.106-.342-.273-.602-.501-.781-.219-.187-.512-.28-.879-.28-.382 0-.691.08-.927.243a1.46 1.46 0 00-.525.684c-.114.293-.191.659-.232 1.099-.041.439-.061.935-.061 1.489v.964c0 .594.016 1.11.049 1.55.04.432.118.798.232 1.099.122.293.297.513.524.66.236.146.554.219.953.219zm12.048 2.844c-.903 0-1.705-.138-2.405-.415a4.762 4.762 0 01-1.758-1.196 5.35 5.35 0 01-1.098-1.917c-.253-.748-.379-1.603-.379-2.563v-1.087c0-1.074.122-2.014.367-2.82.244-.813.59-1.497 1.037-2.05a4.103 4.103 0 011.648-1.233c.659-.277 1.404-.415 2.234-.415.83 0 1.558.138 2.185.415a3.81 3.81 0 011.575 1.22c.415.538.728 1.205.94 2.003.211.797.317 1.725.317 2.783v1.562h-8.85v-2.404h5.493v-.306c0-.537-.057-.984-.171-1.343-.114-.366-.293-.638-.537-.817-.244-.18-.57-.269-.976-.269-.342 0-.631.07-.867.208-.236.138-.423.354-.562.647-.138.293-.24.675-.305 1.147a12.268 12.268 0 00-.098 1.672v1.087c0 .61.053 1.123.159 1.538.106.407.261.74.464 1 .212.253.468.436.769.55.301.106.651.159 1.05.159.602 0 1.143-.106 1.623-.317a3.74 3.74 0 001.246-.892l1.367 2.076c-.236.309-.562.618-.977.927-.415.31-.911.562-1.489.757-.578.195-1.245.293-2.002.293z" fill="#F2F5F7"/><path d="M72.566 45.309l1.723-5.649h1.512l-2.543 7.307a4.986 4.986 0 01-.229.51 2.313 2.313 0 01-.369.521 1.637 1.637 0 01-.556.404 1.877 1.877 0 01-.81.158 1.8 1.8 0 01-.362-.035 5.785 5.785 0 01-.323-.064l-.005-1.078a5.127 5.127 0 00.28.017c.235 0 .43-.029.587-.087a.812.812 0 00.38-.27c.102-.125.188-.293.258-.504l.457-1.23zm-.972-5.649l1.506 4.746.252 1.489-.979.252-2.303-6.487h1.524zm8.783 4.63l1.887-4.63h1.224L80.858 46h-.962l-2.624-6.34h1.224l1.881 4.63zm-2.244-4.63V46H76.72v-6.34h1.412zM82.62 46v-6.34h1.418V46H82.62zm7.33-3.691v1.113h-3.28v-1.113h3.281zm-2.87-2.649V46h-1.413v-6.34h1.412zm3.89 0V46h-1.412v-6.34h1.412zm2.554 2.016h1.87c.546 0 1.011.092 1.394.275.383.184.674.44.873.768.203.324.305.695.305 1.113 0 .309-.057.596-.17.861-.113.262-.281.49-.504.686a2.324 2.324 0 01-.809.457 3.33 3.33 0 01-1.09.164h-2.806v-6.34h1.418v5.22h1.388c.282 0 .506-.048.674-.146a.872.872 0 00.364-.38 1.147 1.147 0 000-1.008.898.898 0 00-.364-.393c-.168-.101-.392-.152-.674-.152h-1.869v-1.125zm6.938-2.016V46H99.05v-6.34h1.412zm4.465 6.457a3.39 3.39 0 01-1.272-.228 2.812 2.812 0 01-.961-.65 2.884 2.884 0 01-.603-.98 3.418 3.418 0 01-.211-1.212v-.234c0-.497.072-.946.217-1.348.144-.403.345-.746.603-1.031.258-.29.563-.51.914-.662a2.846 2.846 0 011.143-.229c.453 0 .849.076 1.189.229.34.152.621.367.844.644.227.274.395.6.504.979.113.378.17.796.17 1.253v.604h-4.899v-1.014h3.504v-.111a1.981 1.981 0 00-.152-.715 1.22 1.22 0 00-.416-.539c-.188-.137-.438-.205-.75-.205-.234 0-.443.05-.627.152-.18.098-.33.24-.451.428a2.244 2.244 0 00-.281.68 3.793 3.793 0 00-.094.885v.234c0 .277.037.535.111.773.078.235.192.44.34.615.148.176.328.315.539.417.211.097.451.146.721.146.34 0 .642-.068.908-.205.266-.137.496-.33.691-.58l.745.72a2.9 2.9 0 01-.534.575c-.218.18-.486.326-.802.44-.313.112-.676.17-1.09.17zm9.568-6.457V46h-1.418v-6.34h1.418zm2.08 0v1.113h-5.543V39.66h5.543zm3.305 6.457a3.39 3.39 0 01-1.272-.228 2.812 2.812 0 01-.961-.65 2.9 2.9 0 01-.603-.98 3.418 3.418 0 01-.211-1.212v-.234c0-.497.072-.946.217-1.348.144-.403.345-.746.603-1.031.258-.29.563-.51.914-.662a2.846 2.846 0 011.143-.229c.453 0 .85.076 1.189.229.34.152.621.367.844.644.227.274.395.6.504.979.113.378.17.796.17 1.253v.604h-4.898v-1.014h3.503v-.111a1.96 1.96 0 00-.152-.715 1.213 1.213 0 00-.416-.539c-.187-.137-.437-.205-.75-.205-.234 0-.443.05-.627.152-.18.098-.33.24-.451.428a2.244 2.244 0 00-.281.68 3.793 3.793 0 00-.094.885v.234c0 .277.037.535.111.773.078.235.192.44.34.615.149.176.328.315.539.417.211.097.451.146.721.146.34 0 .642-.068.908-.205.266-.137.496-.33.691-.58l.745.72a2.9 2.9 0 01-.534.575c-.218.18-.486.326-.802.44-.313.112-.676.17-1.09.17zm4.717-6.457l1.207 2.104 1.23-2.104h1.553l-1.922 3.112L128.664 46h-1.553l-1.289-2.191L124.533 46h-1.558l1.992-3.228-1.916-3.112h1.547zm9.287 2.649v1.113h-3.281v-1.113h3.281zm-2.871-2.649V46h-1.412v-6.34h1.412zm3.89 0V46h-1.412v-6.34h1.412zm1.237 3.24v-.134c0-.457.066-.881.199-1.272.133-.394.324-.736.574-1.025.254-.293.563-.52.926-.68a3.011 3.011 0 011.242-.246c.465 0 .879.082 1.242.246.367.16.678.387.932.68.254.289.447.63.58 1.025.133.39.199.815.199 1.272v.134c0 .457-.066.881-.199 1.272-.133.39-.326.732-.58 1.025a2.693 2.693 0 01-.926.68c-.363.16-.775.24-1.236.24-.465 0-.881-.08-1.248-.24a2.684 2.684 0 01-.926-.68 3.044 3.044 0 01-.58-1.025 3.922 3.922 0 01-.199-1.272zm1.412-.134v.134c0 .285.029.555.088.809.058.254.15.476.275.668.125.191.285.342.48.451.196.11.428.164.698.164.261 0 .488-.054.679-.164.196-.11.356-.26.481-.451.125-.192.217-.414.275-.668.063-.254.094-.524.094-.809v-.134c0-.282-.031-.547-.094-.797a2.032 2.032 0 00-.281-.674 1.346 1.346 0 00-.48-.457 1.324 1.324 0 00-.686-.17 1.35 1.35 0 00-.691.17c-.192.11-.35.262-.475.457a2.11 2.11 0 00-.275.674c-.059.25-.088.515-.088.797zm9.832-3.106v1.125h-3.094V39.66h3.094zm1.107 0V46h-1.412v-6.34h1.412zm-4.547 0h1.395l-.17 3.135c-.024.465-.07.875-.141 1.23a4.105 4.105 0 01-.269.909c-.114.25-.252.453-.416.609a1.544 1.544 0 01-.574.346 2.294 2.294 0 01-.739.111h-.439l-.006-1.16.223-.018a.868.868 0 00.375-.111.849.849 0 00.269-.281 1.55 1.55 0 00.188-.47c.05-.19.089-.417.117-.679.031-.261.054-.566.07-.914l.117-2.707zm5.778 3.24v-.134c0-.457.066-.881.199-1.272.133-.394.324-.736.574-1.025.254-.293.563-.52.926-.68a3.011 3.011 0 011.242-.246c.465 0 .879.082 1.242.246.367.16.678.387.932.68.254.289.447.63.58 1.025.133.39.199.815.199 1.272v.134c0 .457-.066.881-.199 1.272-.133.39-.326.732-.58 1.025a2.693 2.693 0 01-.926.68c-.363.16-.775.24-1.236.24-.465 0-.881-.08-1.248-.24a2.684 2.684 0 01-.926-.68 3.044 3.044 0 01-.58-1.025 3.922 3.922 0 01-.199-1.272zm1.412-.134v.134c0 .285.029.555.088.809.058.254.15.476.275.668.125.191.285.342.481.451.195.11.427.164.697.164a1.336 1.336 0 001.16-.615c.125-.192.217-.414.275-.668.063-.254.094-.524.094-.809v-.134c0-.282-.031-.547-.094-.797a2.032 2.032 0 00-.281-.674 1.346 1.346 0 00-.48-.457 1.324 1.324 0 00-.686-.17 1.35 1.35 0 00-.691.17c-.192.11-.35.262-.475.457a2.11 2.11 0 00-.275.674c-.059.25-.088.515-.088.797zm9.885-3.106v1.125h-2.766V46h-1.412v-6.34h4.178zm2.279 4.278l2.49-4.278h1.412V46h-1.412v-4.283L163.299 46h-1.412v-6.34h1.412v4.278zm6.855 0l2.491-4.278h1.412V46h-1.412v-4.283L170.154 46h-1.412v-6.34h1.412v4.278z" fill="#fff" fill-opacity=".7"/><path d="M33.917 14.666c1.193 0 2.201.77 2.581 1.834h9.504a2.746 2.746 0 012.581-1.834 2.753 2.753 0 012.75 2.75 2.753 2.753 0 01-2.75 2.75 2.746 2.746 0 01-2.581-1.833h-9.505a2.746 2.746 0 01-2.581 1.833 2.753 2.753 0 01-2.75-2.75 2.754 2.754 0 012.75-2.75zm14.666 3.667a.918.918 0 000-1.833.918.918 0 000 1.833zm-14.666 0a.918.918 0 000-1.833.918.918 0 000 1.833z" fill="#00B2FF"/><path d="M26.583 20.335v-5.669c0-.243.097-.476.269-.648l3.667-3.666a.914.914 0 01.648-.269h2.918a2.746 2.746 0 012.582-1.833 2.753 2.753 0 012.75 2.75 2.753 2.753 0 01-2.75 2.75 2.746 2.746 0 01-2.582-1.834h-2.539l-3.13 3.13v5.289a2.746 2.746 0 011.834 2.581 2.753 2.753 0 01-2.75 2.75 2.753 2.753 0 01-2.75-2.75c0-1.193.77-2.201 1.833-2.581zm10.084-8.419a.918.918 0 000-1.833.918.918 0 000 1.833zM27.5 23.834a.918.918 0 000-1.833.918.918 0 000 1.833zm-17.417-.001c.424 0 .82.104 1.178.276l1.572-1.572V13.75c0-.244.097-.477.269-.648l9.174-9.174A2.705 2.705 0 0122 2.75 2.753 2.753 0 0124.75 0a2.753 2.753 0 012.75 2.75 2.753 2.753 0 01-2.75 2.75c-.424 0-.82-.104-1.178-.276l-8.905 8.905v8.787a.913.913 0 01-.269.648l-1.84 1.841c.172.358.275.754.275 1.178a2.753 2.753 0 01-2.75 2.75 2.753 2.753 0 01-2.75-2.75 2.753 2.753 0 012.75-2.75zM24.75 3.667a.918.918 0 000-1.834.918.918 0 000 1.834zM10.083 27.5a.918.918 0 000-1.834.918.918 0 000 1.834zm-8.25-14.498V9.167c0-.244.097-.477.269-.649l6.417-6.416a.914.914 0 01.648-.269h4.752A2.746 2.746 0 0116.5 0a2.753 2.753 0 012.75 2.75A2.753 2.753 0 0116.5 5.5a2.746 2.746 0 01-2.581-1.833H9.546l-5.88 5.879v3.456A2.746 2.746 0 015.5 15.583a2.753 2.753 0 01-2.75 2.75A2.753 2.753 0 010 15.583c0-1.193.77-2.202 1.833-2.581zM16.5 3.667a.918.918 0 000-1.834.918.918 0 000 1.834zM2.75 16.5a.918.918 0 000-1.834.918.918 0 000 1.834zm11.916 33.169V36.497a2.747 2.747 0 01-1.833-2.58 2.753 2.753 0 012.75-2.75c1.194 0 2.202.768 2.582 1.832h9.504a2.746 2.746 0 012.581-1.833c1.194 0 2.202.77 2.581 1.833h5.29l3.405-3.405a2.705 2.705 0 01-.276-1.178 2.753 2.753 0 012.75-2.75 2.753 2.753 0 012.75 2.75 2.753 2.753 0 01-2.75 2.75c-.423 0-.82-.103-1.178-.276l-3.674 3.674a.914.914 0 01-.648.269h-5.669a2.746 2.746 0 01-2.581 1.833 2.746 2.746 0 01-2.581-1.833h-9.505a2.747 2.747 0 01-1.665 1.664V49.67a2.746 2.746 0 011.833 2.581 2.753 2.753 0 01-2.75 2.75 2.753 2.753 0 01-2.75-2.75c0-1.193.77-2.202 1.834-2.581zM44 29.333a.918.918 0 000-1.833.917.917 0 000 1.833zm-13.75 5.5a.918.918 0 000-1.834.917.917 0 000 1.834zM15.583 53.166a.918.918 0 000-1.833.918.918 0 000 1.833zm0-18.333a.918.918 0 000-1.834.918.918 0 000 1.834z" fill="#00B2FF"/><path d="M19.25 18.502v-2.919a.91.91 0 01.269-.648L30.526 3.928a2.705 2.705 0 01-.276-1.178A2.753 2.753 0 0133 0c1.194 0 2.202.77 2.581 1.833h3.836c.506 0 .916.41.916.917v2.37l3.406 3.406a2.705 2.705 0 011.178-.276 2.753 2.753 0 012.75 2.75 2.753 2.753 0 01-2.75 2.75 2.753 2.753 0 01-2.75-2.75c0-.424.103-.82.276-1.178l-3.674-3.674A.913.913 0 0138.5 5.5V3.667h-2.919A2.746 2.746 0 0133 5.5a2.71 2.71 0 01-1.178-.276L21.083 15.963v2.539a2.746 2.746 0 011.834 2.581 2.753 2.753 0 01-2.75 2.75 2.753 2.753 0 01-2.75-2.75c0-1.193.769-2.202 1.833-2.581zm25.667-6.585a.918.918 0 000-1.834.918.918 0 000 1.833zM33 3.666a.918.918 0 000-1.834.918.918 0 000 1.834zM20.167 22a.917.917 0 10-.002-1.835.917.917 0 00.002 1.835z" fill="#00B2FF"/><path d="M22 25.666c1.194 0 2.202.77 2.581 1.834h10.79l5.23-5.232A.914.914 0 0141.25 22h9.704l2.213-2.213v-7.491l-7.072-7.072a2.705 2.705 0 01-1.178.276 2.753 2.753 0 01-2.75-2.75A2.753 2.753 0 0144.917 0a2.753 2.753 0 012.75 2.75c0 .423-.104.82-.276 1.178l7.34 7.34a.913.913 0 01.269.648v8.25a.913.913 0 01-.269.648l-2.75 2.75a.914.914 0 01-.648.269H41.63l-5.232 5.231a.914.914 0 01-.648.269H24.581A2.746 2.746 0 0122 31.166a2.753 2.753 0 01-2.75-2.75 2.753 2.753 0 012.75-2.75zM44.917 1.833a.918.918 0 000 1.834.918.918 0 000-1.834zM22 29.333a.918.918 0 000-1.833.918.918 0 000 1.833zM2.75 22c.424 0 .82.103 1.178.276l3.405-3.406v-5.289A2.746 2.746 0 015.5 11a2.753 2.753 0 012.75-2.75A2.753 2.753 0 0111 11c0 1.193-.77 2.202-1.833 2.581v5.669a.913.913 0 01-.269.648l-3.674 3.674c.172.358.276.754.276 1.178 0 1.193-.77 2.201-1.833 2.58v.707L10.73 35.1a.912.912 0 01.269.648v1.086a2.746 2.746 0 011.833 2.581A2.746 2.746 0 0111 41.997v2.172a2.746 2.746 0 011.833 2.581 2.753 2.753 0 01-2.75 2.75 2.753 2.753 0 01-2.75-2.75c0-1.193.77-2.202 1.834-2.581v-2.172a2.746 2.746 0 01-1.834-2.581c0-1.194.77-2.202 1.834-2.581v-.706l-7.065-7.065a.913.913 0 01-.269-.648v-1.085A2.746 2.746 0 010 24.75 2.753 2.753 0 012.75 22zm5.5-10.084a.918.918 0 000-1.833.918.918 0 000 1.833zm1.833 35.75a.918.918 0 000-1.833.918.918 0 000 1.833zm0-7.333a.918.918 0 000-1.834.918.918 0 000 1.834zM2.75 25.666a.918.918 0 000-1.833.918.918 0 000 1.833z" fill="#00B2FF"/></svg>